<svg width="734" height="640" fill="none" xmlns="http://www.w3.org/2000/svg" xmlns:xlink="http://www.w3.org/1999/xlink"><path fill="url(#a)" d="M0 0h734v640H0z"/><defs><pattern id="a" patternContentUnits="objectBoundingBox" width="1" height="1"><use xlink:href="#b" transform="matrix(.00136 0 0 .00156 -.004 0)"/></pattern><image id="b" width="740" height="640" xlink:href="img/house.jpg"/></defs><path d="M222 527l220.8 8 69.2-13.7V543l-68.5 19.7-221.5-11V527z" fill="#3595F6" fill-opacity=".75"/><path d="M223 526v-25l220.3 3.3L513 501v20l-69.3 13-220.7-8z" fill="#3595F6" fill-opacity=".75"/><path d="M223 500v-25h290v23l-68 7-222-5z" fill="#3595F6" fill-opacity=".75"/><path d="M223 476v-25l221.3-3.7L512 454v22h-68" fill="#3595F6" fill-opacity=".75"/><path d="M223 450v-26l221.5-3.3 68.5 11V453l-69-6.7-221 3.7z" fill="#3595F6" fill-opacity=".75"/><path d="M222 423v-23.7L443 387l71 23v21.3L443 419l-221 4z" fill="#3595F6" fill-opacity=".75"/><path d="M222 401v-25l222.2-16.3 69.8 28.6V409l-70.3-21.7L222 401z" fill="#3595F6" fill-opacity=".75"/><path d="M222 376v-25l222.5-20.3 69.5 36.6V388l-72-28.7L222 376z" fill="#3595F6" fill-opacity=".75"/><path d="M222 350v-24l223-24.7 69 44V367l-69.3-38L222 350z" fill="#3595F6" fill-opacity=".75"/><path d="M222 325v-24l222.5-28.7 69.5 51V344l-70.3-42.3L222 325z" fill="#3595F6" fill-opacity=".75"/><path d="M221 301v-24l222.3-33 70.7 59.3V323l-70-50.7L221 301z" fill="#3595F6" fill-opacity=".75"/><path d="M222 276v-24l221.2-35 69.8 64v21l-68.7-58.3L222 276z" fill="#3595F6" fill-opacity=".75"/><path d="M222 252v-25l222.3-38 68.7 70.3V280l-69-64-222 36z" fill="#3595F6" fill-opacity=".75"/><path d="M222 226v-25l220.8-43.7 70.2 79V259l-69-73.3L222 226z" fill="#3595F6" fill-opacity=".75"/><path d="M223 202v-25l220-48 70 85v23l-70.7-79.3L223 202z" fill="#3595F6" fill-opacity=".75"/><path d="M222 177v-25l219.8-52 71.2 92.3V215l-69.7-86.3L222 177z" fill="#3595F6" fill-opacity=".75"/><path d="M222 152v-26l222-56.7L513 171v21l-69.3-91.7L222 152z" fill="#3595F6" fill-opacity=".75"/></svg>